name Walk6.mot
datacolumns 19
datarows 10
range 2.93500000 2.98000000
endheader

                time	   L_ground_force_vx	   L_ground_force_vy	   L_ground_force_vz	   L_ground_force_px	   L_ground_force_py	   L_ground_force_pz	   R_ground_force_vx	   R_ground_force_vy	   R_ground_force_vz	   R_ground_force_px	   R_ground_force_py	   R_ground_force_pz	   L_ground_torque_x	   L_ground_torque_y	   L_ground_torque_z	   R_ground_torque_x	   R_ground_torque_y	   R_ground_torque_z	
          2.93500000	          0.08603431	          0.22821397	          0.00430411	         -0.00043444	          0.00000000	         -0.00012364	         -7.05489613	        756.67382944	        -52.53976238	          0.13854060	          0.00000000	          0.13482524	          0.00000000	          0.00025793	          0.00000000	          0.00000000	         12.36767803	          0.00000000	
          2.94000000	          0.06756160	          0.16869642	          0.00167120	         -0.00041918	          0.00000000	         -0.00011922	         -5.28295334	        750.31277406	        -51.64162193	          0.13918916	          0.00000000	          0.13521014	          0.00000000	          0.00024193	          0.00000000	          0.00000000	         12.00790286	          0.00000000	
          2.94500000	          0.05037210	          0.11718711	         -0.00014940	         -0.00037624	          0.00000000	         -0.00010696	         -3.50702121	        744.03553440	        -50.91963576	          0.13983243	          0.00000000	          0.13560938	          0.00000000	          0.00021253	          0.00000000	          0.00000000	         11.65906221	          0.00000000	
          2.95000000	          0.03536498	          0.07488711	         -0.00130511	         -0.00031895	          0.00000000	         -0.00009063	         -1.73222526	        737.86534259	        -50.38229580	          0.14047312	          0.00000000	          0.13602282	          0.00000000	          0.00017688	          0.00000000	          0.00000000	         11.32317691	          0.00000000	
          2.95500000	          0.02294427	          0.04183827	         -0.00194302	         -0.00025698	          0.00000000	         -0.00007300	          0.03325598	        731.83919913	        -50.02680293	          0.14111506	          0.00000000	          0.13644969	          0.00000000	          0.00014002	          0.00000000	          0.00000000	         11.00218835	          0.00000000	
          2.96000000	          0.01316449	          0.01733579	         -0.00219843	         -0.00019692	          0.00000000	         -0.00005591	          1.77912567	        726.00645760	        -49.83932704	          0.14176287	          0.00000000	          0.13688934	          0.00000000	          0.00010531	          0.00000000	          0.00000000	         10.69775403	          0.00000000	
          2.96500000	          0.00585175	          0.00025178	         -0.00218835	         -0.00014283	          0.00000000	         -0.00004054	          3.49395589	        720.42517984	        -49.79607159	          0.14242123	          0.00000000	          0.13734197	          0.00000000	          0.00007472	          0.00000000	          0.00000000	         10.41094000	          0.00000000	
          2.97000000	          0.00069944	         -0.01072379	         -0.00200881	         -0.00009685	          0.00000000	         -0.00002747	          5.16726480	        715.16011231	        -49.86682782	          0.14309467	          0.00000000	          0.13780774	          0.00000000	          0.00004920	          0.00000000	          0.00000000	         10.14260689	          0.00000000	
          2.97500000	         -0.00265996	         -0.01691408	         -0.00173481	         -0.00005970	          0.00000000	         -0.00001692	          6.79175254	        710.27802601	        -50.01867010	          0.14378667	          0.00000000	          0.13828586	          0.00000000	          0.00002894	          0.00000000	          0.00000000	          9.89350123	          0.00000000	
          2.98000000	         -0.00460391	         -0.01954610	         -0.00142189	         -0.00003116	          0.00000000	         -0.00000881	          8.36395422	        705.84662506	        -50.21809489	          0.14449970	          0.00000000	          0.13877522	          0.00000000	          0.00001366	          0.00000000	          0.00000000	          9.66396822	          0.00000000	
